<svg xmlns="http://www.w3.org/2000/svg" viewBox="0 0 64 64" role="img" aria-label="La Gaviota icon">
  <rect width="64" height="64" rx="14" fill="#fff7e8"/>
  <path d="M24.5 17.5c12.9 5.2 23.2 11.9 30 20.3" fill="none" stroke="#c94d2f" stroke-width="3.4" stroke-linecap="round"/>
  <path d="M52 42.8C44.5 51 33.8 54.6 21.2 51.6" fill="none" stroke="#c94d2f" stroke-width="3.4" stroke-linecap="round"/>
  <path d="M5.8 18.2c13.6 6.1 23.2 13.1 28.8 21.2 2.6-2.2 5.8-3.4 9.5-3.6 2.9-.2 5.4.5 7.4 2l-8.8 3.1c-6.1 7.7-15.9 11.1-29.5 10.2 5.4-2.2 10.1-5.1 14-8.8-7.8-.2-15.3-1.5-22.4-4 7.9-1.2 15.4-1.3 22.6-.2-3.8-6.6-11-13.2-21.6-19.9z" fill="#073d35"/>
  <path d="M20.7 23.9c8 4.2 13.8 9.6 17.3 16.3-1.7 1.7-4 3.3-6.9 4.7-2.4-6.4-5.9-13.4-10.4-21z" fill="#fff7e8"/>
  <path d="M43.9 36.7c1.5-.1 3.1.2 4.7 1l-3.8 1.1c-1.1.3-2.1-.9-1.4-1.8.1-.2.3-.3.5-.3z" fill="#fff7e8"/>
</svg>
